<svg width="50" height="50" viewBox="0 0 50 50" fill="none" xmlns="http://www.w3.org/2000/svg">
<circle cx="25" cy="25" r="25" fill="url(#paint0_linear_98_4518)"/>
<g clip-path="url(#clip0_98_4518)">
<path d="M32.3525 20.4895C31.9459 20.4895 31.5468 20.5218 31.1572 20.5832C31.1173 19.2322 30.6509 17.9018 29.7881 16.697C29.7189 16.6251 29.0166 15.7136 27.9916 14.8423C27.8001 14.6928 27.603 14.5504 27.4012 14.415C26.4496 13.7772 25.3922 13.2973 24.288 12.9937C23.1221 12.673 21.9035 12.5524 20.6982 12.6583C19.3237 12.7792 17.9742 13.179 16.7493 13.8127C15.5632 14.4264 14.4839 15.2652 13.6416 16.305C13.538 16.4329 13.4429 16.5664 13.3428 16.6968C12.3275 18.1132 11.8609 19.7051 11.9933 21.3003C12.1415 23.0851 13.0097 24.7832 14.5738 26.3473L16.8968 28.6702L11.5921 33.9749C11.3742 34.1928 11.3742 34.5461 11.5921 34.7641L15.4723 38.6443C15.577 38.7489 15.7189 38.8077 15.8669 38.8077C16.0149 38.8077 16.1569 38.7489 16.2615 38.6443L21.5661 33.3396L26.8708 38.6443C26.9755 38.7489 27.1174 38.8077 27.2654 38.8077C27.4135 38.8077 27.5554 38.7489 27.6601 38.6442L30.6999 35.6029C31.2323 35.7207 31.7852 35.7833 32.3525 35.7833C36.5694 35.7833 40.0001 32.3525 40.0001 28.1356C40.0001 23.9195 36.5694 20.4895 32.3525 20.4895ZM21.5661 13.7361C24.2698 13.7361 26.9738 14.994 28.5937 16.9734L25.8363 19.7307C23.0671 18.3985 20.0641 18.3991 17.2959 19.7322L14.5371 16.9734C16.1569 14.994 18.8616 13.7361 21.5661 13.7361ZM24.995 20.572L21.5654 24.0016L18.1365 20.5728C20.3929 19.5907 22.7378 19.5908 24.995 20.572ZM15.363 25.5581C12.9533 23.1484 12.4338 20.3911 13.8884 17.9031L20.7761 24.7909L17.686 27.881L15.363 25.5581ZM15.8669 37.4605L12.7759 34.3694L18.0801 29.0653C18.0803 29.0651 18.0804 29.065 18.0806 29.0648C18.0808 29.0646 18.0809 29.0645 18.081 29.0643L29.2411 17.9043C29.7834 18.8406 30.0563 19.842 30.0427 20.8463C26.9521 21.8279 24.7064 24.7242 24.7064 28.1355C24.7064 28.2936 24.7118 28.4503 24.7213 28.606L15.8669 37.4605ZM27.2652 37.4604L22.3553 32.5504L24.9305 29.9752C25.5234 32.3677 27.2451 34.3191 29.4955 35.229L27.2652 37.4604ZM32.3525 34.6672C28.7518 34.6672 25.8224 31.7371 25.8224 28.1356C25.8224 24.535 28.7518 21.6055 32.3525 21.6055C35.954 21.6055 38.8841 24.5349 38.8841 28.1356C38.8841 31.7371 35.954 34.6672 32.3525 34.6672Z" fill="white"/>
<path d="M35.9577 26.0842H34.4056V24.5322C34.4056 24.224 34.1558 23.9741 33.8476 23.9741H30.8595C30.5513 23.9741 30.3015 24.224 30.3015 24.5322V26.0842H28.7494C28.4412 26.0842 28.1914 26.3341 28.1914 26.6423V29.6288C28.1914 29.9369 28.4412 30.1868 28.7494 30.1868H30.3015V31.7405C30.3015 32.0486 30.5513 32.2985 30.8595 32.2985H33.8476C34.1558 32.2985 34.4056 32.0486 34.4056 31.7405V30.1868H35.9577C36.2659 30.1868 36.5157 29.9369 36.5157 29.6288V26.6423C36.5157 26.3341 36.2659 26.0842 35.9577 26.0842ZM35.3997 29.0707H33.8476C33.5394 29.0707 33.2896 29.3206 33.2896 29.6288V31.1824H31.4176V29.6288C31.4176 29.3206 31.1677 29.0707 30.8595 29.0707H29.3075V27.2003H30.8595C31.1677 27.2003 31.4176 26.9504 31.4176 26.6423V25.0902H33.2896V26.6423C33.2896 26.9504 33.5394 27.2003 33.8476 27.2003H35.3997V29.0707Z" fill="white"/>
</g>
<defs>
<linearGradient id="paint0_linear_98_4518" x1="25" y1="0" x2="25" y2="50" gradientUnits="userSpaceOnUse">
<stop stop-color="#3BB96D"/>
<stop offset="1" stop-color="#279A59"/>
</linearGradient>
<clipPath id="clip0_98_4518">
<rect width="28.5714" height="28.5714" fill="white" transform="translate(11.4287 11.4286)"/>
</clipPath>
</defs>
</svg>
